#!OML:ASF X:\für Bonn\!DataBase\2005_08_11_Bastian_Final\c3d\Bastian.ASF
:FULLY-SPECIFIED
:DEGREES
108
root -21.2228 17.6977 0.481298 123.108 -77.3904 -127.963
lowerback 8.07957 7.52589 7.60565
upperback 3.026 10.4258 -3.08663
thorax 0.640935 5.33285 -8.04803
lowerneck -10.088 -10.3842 -4.25457
upperneck -17.2213 -13.0395 14.3477
head -2.21786 -7.02504 4.81576
rclavicle 7.43455e-014 -1.43125e-014
rhumerus 55.9648 -5.36132 -20.5894
rradius 17.8411
rwrist -6.22162
rhand 6.90411 -6.15622
rfingers 7.12502
rthumb 32.1844 -33.325
lclavicle 7.43455e-014 -1.43125e-014
lhumerus -11.2977 -23.6676 85.9825
lradius 35.6395
lwrist 23.3289
lhand -12.707 -10.282
lfingers 7.12502
lthumb 13.3757 19.2687
rfemur 8.50027 -7.95564 28.9972
rtibia 28.6558
rfoot -14.482 -7.15482
rtoes -25.6409
lfemur -9.55202 -5.49771 -9.80982
ltibia 26.3266
lfoot -2.87307 -12.828
ltoes -15.7698
109
root -21.2558 17.6984 0.487695 122.864 -77.4319 -127.715
lowerback 8.22273 7.50813 7.57925
upperback 3.03885 10.406 -3.11684
thorax 0.573436 5.31938 -8.0869
lowerneck -10.0595 -10.3921 -4.09265
upperneck -17.3461 -13.0616 14.3261
head -2.27131 -7.05174 4.79227
rclavicle 8.54774e-014 -3.33958e-014
rhumerus 55.8049 -5.44742 -20.6416
rradius 17.855
rwrist -6.11542
rhand 7.67296 -6.46662
rfingers 7.12502
rthumb 32.916 -33.4845
lclavicle 8.54774e-014 -3.33958e-014
lhumerus -11.552 -23.6293 86.1817
lradius 35.4701
lwrist 23.2227
lhand -12.6061 -10.4678
lfingers 7.12502
lthumb 13.4729 19.0764
rfemur 7.89853 -7.65666 29.1145
rtibia 28.7538
rfoot -14.7871 -7.37163
rtoes -25.5453
lfemur -9.45452 -5.52848 -9.86906
ltibia 26.3419
lfoot -2.9754 -12.8622
ltoes -15.6313
110
root -21.2887 17.6987 0.494803 122.664 -77.4703 -127.523
lowerback 8.3707 7.48411 7.56219
upperback 3.05153 10.3785 -3.15503
thorax 0.505005 5.30229 -8.13981
lowerneck -10.0264 -10.4084 -3.97299
upperneck -17.474 -13.0871 14.3724
head -2.31717 -7.08067 4.79506
rclavicle 1.45113e-013 -3.02153e-014
rhumerus 55.6306 -5.42728 -20.5303
rradius 17.9023
rwrist -6.31667
rhand 8.33468 -6.74069
rfingers 7.12502
rthumb 33.5452 -33.6243
lclavicle 1.45113e-013 -3.02153e-014
lhumerus -11.8195 -23.6757 86.3411
lradius 35.2605
lwrist 23.1918
lhand -12.5233 -10.5675
lfingers 7.12502
lthumb 13.5527 18.9714
rfemur 7.31222 -7.33894 29.2163
rtibia 28.8323
rfoot -15.1042 -7.60658
rtoes -25.3821
lfemur -9.34275 -5.57732 -9.93737
ltibia 26.3561
lfoot -3.04977 -12.8716
ltoes -15.3279
111
root -21.3219 17.7004 0.501934 122.628 -77.5025 -127.488
lowerback 8.4825 7.46788 7.51442
upperback 3.07168 10.3566 -3.18516
thorax 0.458016 5.28855 -8.16132
lowerneck -10.0106 -10.4254 -3.86458
upperneck -17.5917 -13.1134 14.4178
head -2.35665 -7.10864 4.79787
rclavicle -1.07344e-014 1.11319e-014
rhumerus 55.5085 -5.40127 -20.4192
rradius 17.9435
rwrist -6.60312
rhand 8.9476 -6.95906
rfingers 7.12502
rthumb 34.1275 -33.7144
lclavicle -1.07344e-014 1.11319e-014
lhumerus -11.9456 -23.7249 86.495
lradius 34.8124
lwrist 23.1521
lhand -12.467 -10.6696
lfingers 7.12502
lthumb 13.607 18.8657
rfemur 6.7035 -7.05785 29.2758
rtibia 28.8967
rfoot -15.4422 -7.78992
rtoes -25.1022
lfemur -9.21537 -5.61524 -10.0221
ltibia 26.3478
lfoot -3.13052 -12.8455
ltoes -15.0914
112
root -21.355 17.7018 0.508565 122.553 -77.5125 -127.423
lowerback 8.58588 7.43721 7.47009
upperback 3.08856 10.3158 -3.19464
thorax 0.405058 5.26474 -8.16177
lowerneck -9.98334 -10.4386 -3.79493
upperneck -17.6833 -13.13 14.4908
head -2.38559 -7.12983 4.81422
rclavicle 7.15625e-015 -3.18055e-014
rhumerus 55.4499 -5.34737 -20.3454
rradius 17.9895
rwrist -7.00516
rhand 9.42226 -7.13335
rfingers 7.12502
rthumb 34.5782 -33.7869
lclavicle 7.15625e-015 -3.18055e-014
lhumerus -12.0958 -23.7657 86.6427
lradius 34.3287
lwrist 23.188
lhand -12.3875 -10.6907
lfingers 7.12502
lthumb 13.6836 18.8395
rfemur 6.08982 -6.82427 29.3471
rtibia 28.9342
rfoot -15.7344 -8.02361
rtoes -24.7154
lfemur -9.07651 -5.66543 -10.0812
ltibia 26.3424
lfoot -3.24378 -12.8211
ltoes -14.949
113
root -21.3889 17.7031 0.515669 122.545 -77.5388 -127.418
lowerback 8.65147 7.41624 7.41786
upperback 3.11903 10.2841 -3.21712
thorax 0.390078 5.24785 -8.16428
lowerneck -9.9823 -10.4673 -3.72769
upperneck -17.7668 -13.1679 14.5667
head -2.40594 -7.1607 4.82894
rclavicle -1.39149e-014 3.97569e-014
rhumerus 55.3758 -5.3191 -20.2682
rradius 18.0438
rwrist -7.49929
rhand 9.78036 -7.26703
rfingers 7.12502
rthumb 34.918 -33.8422
lclavicle -1.39149e-014 3.97569e-014
lhumerus -12.2019 -23.8635 86.7696
lradius 33.7591
lwrist 23.1666
lhand -12.3125 -10.6336
lfingers 7.12502
lthumb 13.7559 18.8917
rfemur 5.47194 -6.61915 29.3773
rtibia 28.9545
rfoot -15.9855 -8.30171
rtoes -24.0852
lfemur -8.94201 -5.74688 -10.1683
ltibia 26.3335
lfoot -3.3475 -12.7466
ltoes -14.7136
114
root -21.4231 17.7032 0.522313 122.489 -77.5531 -127.365
lowerback 8.68134 7.3876 7.35834
upperback 3.15368 10.2401 -3.21989
thorax 0.391416 5.22528 -8.13595
lowerneck -9.9547 -10.4949 -3.66945
upperneck -17.8735 -13.2017 14.6575
head -2.43573 -7.19143 4.85223
rclavicle -1.70955e-014 1.27222e-014
rhumerus 55.368 -5.30209 -20.2632
rradius 18.0558
rwrist -7.9526
rhand 9.96833 -7.31677
rfingers 7.12502
rthumb 35.0963 -33.8503
lclavicle -1.70955e-014 1.27222e-014
lhumerus -12.2829 -23.9303 86.8814
lradius 33.0969
lwrist 23.0965
lhand -12.1637 -10.5561
lfingers 7.12502
lthumb 13.8993 18.9594
rfemur 4.88276 -6.45581 29.4133
rtibia 28.957
rfoot -16.1562 -8.65154
rtoes -23.3607
lfemur -8.80968 -5.82966 -10.232
ltibia 26.334
lfoot -3.43826 -12.677
ltoes -14.406
115
root -21.4576 17.7028 0.529341 122.478 -77.5777 -127.376
lowerback 8.72348 7.35101 7.2778
upperback 3.18226 10.1847 -3.21955
thorax 0.373047 5.19545 -8.09532
lowerneck -9.91996 -10.516 -3.62821
upperneck -17.9379 -13.2272 14.7354
head -2.45439 -7.21467 4.8729
rclavicle -1.39944e-013 1.11319e-014
rhumerus 55.3503 -5.23446 -20.2469
rradius 18.1157
rwrist -8.52707
rhand 9.95215 -7.35169
rfingers 7.12502
rthumb 35.081 -33.8888
lclavicle -1.39944e-013 1.11319e-014
lhumerus -12.4226 -24.0195 86.9884
lradius 32.4448
lwrist 23.0602
lhand -11.9779 -10.3677
lfingers 7.12502
lthumb 14.0783 19.1354
rfemur 4.33939 -6.32451 29.4144
rtibia 28.9707
rfoot -16.2599 -9.13556
rtoes -22.5424
lfemur -8.65087 -5.91087 -10.3216
ltibia 26.3193
lfoot -3.53637 -12.6151
ltoes -14.1207
116
root -21.4926 17.7048 0.535319 122.466 -77.5806 -127.373
lowerback 8.7073 7.3176 7.2108
upperback 3.2316 10.1307 -3.21593
thorax 0.410727 5.16982 -8.0474
lowerneck -9.90313 -10.5335 -3.60276
upperneck -18.0203 -13.2437 14.8559
head -2.47153 -7.23502 4.9087
rclavicle -2.06736e-014 -4.13472e-014
rhumerus 55.3335 -5.20863 -20.2323
rradius 18.2066
rwrist -9.12541
rhand 9.80417 -7.33259
rfingers 7.12502
rthumb 34.9406 -33.9025
lclavicle -2.06736e-014 -4.13472e-014
lhumerus -12.5002 -24.2107 87.051
lradius 31.724
lwrist 23.075
lhand -11.7775 -10.1751
lfingers 7.12502
lthumb 14.2714 19.3145
rfemur 3.80606 -6.2157 29.4319
rtibia 28.9889
rfoot -16.2337 -9.78166
rtoes -21.9213
lfemur -8.50014 -5.92293 -10.3811
ltibia 26.3057
lfoot -3.65711 -12.6051
ltoes -14.0515
117
root -21.525 17.7065 0.541935 122.485 -77.6008 -127.404
lowerback 8.7025 7.27652 7.1154
upperback 3.27924 10.0649 -3.20866
thorax 0.432391 5.13675 -7.98209
lowerneck -9.88159 -10.5407 -3.54841
upperneck -18.1064 -13.2511 14.9365
head -2.49698 -7.25147 4.9296
rclavicle 3.69739e-014 -6.36111e-015
rhumerus 55.3441 -5.13797 -20.19
rradius 18.3003
rwrist -9.81817
rhand 9.48958 -7.29881
rfingers 7.12502
rthumb 34.6421 -33.9377
lclavicle 3.69739e-014 -6.36111e-015
lhumerus -12.5658 -24.3296 87.1121
lradius 30.9166
lwrist 22.9555
lhand -11.5239 -10.0165
lfingers 7.12502
lthumb 14.5157 19.4557
rfemur 3.2599 -6.15618 29.4105
rtibia 29.0367
rfoot -16.0848 -10.5358
rtoes -21.3968
lfemur -8.34887 -5.90456 -10.4588
ltibia 26.2706
lfoot -3.73233 -12.6147
ltoes -13.7837
118
root -21.5567 17.7083 0.547929 122.505 -77.5965 -127.444
lowerback 8.70955 7.23963 7.03693
upperback 3.31197 10.0076 -3.19659
thorax 0.435769 5.10699 -7.9242
lowerneck -9.86404 -10.5523 -3.48392
upperneck -18.1273 -13.2689 14.9907
head -2.50432 -7.26916 4.93715
rclavicle -1.10524e-013 -7.95139e-015
rhumerus 55.2948 -4.98242 -20.0123
rradius 18.4566
rwrist -10.6528
rhand 9.03688 -7.22375
rfingers 7.12502
rthumb 34.2123 -33.9601
lclavicle -1.10524e-013 -7.95139e-015
lhumerus -12.6642 -24.5102 87.1513
lradius 30.087
lwrist 22.8447
lhand -11.2187 -9.79402
lfingers 7.12502
lthumb 14.8098 19.6568
rfemur 2.76043 -6.1074 29.3978
rtibia 29.1008
rfoot -15.912 -11.3181
rtoes -20.7586
lfemur -8.1873 -5.90163 -10.5105
ltibia 26.2333
lfoot -3.78096 -12.6178
ltoes -13.3941
119
root -21.5859 17.71 0.554056 122.576 -77.6171 -127.515
lowerback 8.69716 7.19979 6.93786
upperback 3.34327 9.9436 -3.19708
thorax 0.445855 5.07399 -7.86531
lowerneck -9.79053 -10.5574 -3.42933
upperneck -18.2233 -13.2717 15.0785
head -2.54042 -7.28535 4.96383
rclavicle -7.55382e-015 9.54166e-015
rhumerus 55.2596 -4.7839 -19.7814
rradius 18.6161
rwrist -11.6121
rhand 8.50445 -7.09085
rfingers 7.12502
rthumb 33.7065 -33.9393
lclavicle -7.55382e-015 9.54166e-015
lhumerus -12.747 -24.7036 87.1805
lradius 29.2003
lwrist 22.7277
lhand -10.9495 -9.55765
lfingers 7.12502
lthumb 15.0691 19.8739
rfemur 2.29561 -6.01386 29.3688
rtibia 29.1898
rfoot -15.7945 -12.1418
rtoes -19.9379
lfemur -8.07438 -5.67251 -10.5699
ltibia 26.1998
lfoot -3.80439 -12.8289
ltoes -13.09
120
root -21.6134 17.7112 0.560015 122.662 -77.6197 -127.62
lowerback 8.69584 7.16643 6.83597
upperback 3.37655 9.88865 -3.18403
thorax 0.4508 5.045 -7.79236
lowerneck -9.71277 -10.5622 -3.34599
upperneck -18.2961 -13.2792 15.1269
head -2.5755 -7.30298 4.97365
rclavicle 4.41302e-014 7.95139e-015
rhumerus 55.2118 -4.55366 -19.4812
rradius 18.817
rwrist -12.6294
rhand 7.97177 -6.90413
rfingers 7.12502
rthumb 33.2002 -33.8619
lclavicle 4.41302e-014 7.95139e-015
lhumerus -12.845 -24.9163 87.2042
lradius 28.2819
lwrist 22.6076
lhand -10.7245 -9.29359
lfingers 7.12502
lthumb 15.2859 20.1216
rfemur 1.91661 -5.95728 29.3365
rtibia 29.2958
rfoot -15.6822 -12.9467
rtoes -19.0087
lfemur -7.93969 -5.57276 -10.6249
ltibia 26.1832
lfoot -3.8801 -12.9125
ltoes -12.9054
